<?xml version="1.0" encoding="UTF-8"?>
<svg width="425px" height="299px" viewBox="0 0 425 299" version="1.1" xmlns="http://www.w3.org/2000/svg" xmlns:xlink="http://www.w3.org/1999/xlink">
  <!-- Generator: Sketch 57.1 (83088) - https://sketch.com -->
  <title>Group 53</title>
  <desc>Created with Sketch.</desc>
  <g id="Page-1" stroke="none" stroke-width="1" fill="none" fill-rule="evenodd">
    <g id="Group-53" fill="#12B4FF">
      <path d="M100.586207,131.44985 C100.586207,136.737189 104.870379,141.023423 110.155172,141.023423 C113.725902,141.023423 116.839829,139.066681 118.48414,136.166498 C120.083513,138.904605 121,142.090768 121,145.491091 C121,155.713279 112.717268,164 102.5,164 C92.2827321,164 84,155.713279 84,145.491091 C84,135.543829 91.8431948,127.429325 101.67994,127.000041 C100.98157,128.329819 100.586207,129.843641 100.586207,131.44985 Z" id="Combined-Shape"></path>
      <path d="M68.8027135,149.318836 C68.8027135,165.678509 74.9178487,180.617663 84.9987386,191.998576 L-4.73400766e-13,153.156005 L76.9349855,117.998358 C71.7536421,127.275293 68.8027135,137.95432 68.8027135,149.318836 Z" id="Combined-Shape"></path>
      <path d="M392.489461,0.000695296511 C405.411556,23.6422775 412.757309,50.770428 412.757309,79.6149916 C412.757309,111.801948 403.610529,141.851662 387.775507,167.304565 L425.000282,177.28276 C403.294903,247.771304 337.674018,299 260.093054,299 C192.750507,299 134.419578,260.400469 106.000337,204.110254 C114.166301,208.170795 123.368252,210.454936 133.103468,210.454936 C166.753817,210.454936 194.032815,183.164481 194.032815,149.5 C194.032815,135.308174 189.184831,122.24913 181.05527,111.889933 L181.778799,112.083695 L392.489461,0.000695296511 Z" id="Combined-Shape"></path>
    </g>
  </g>
</svg>
